<?xml version="1.0" encoding="UTF-8" standalone="no"?>
<!-- Created with Inkscape (http://www.inkscape.org/) -->

<svg
   width="210mm"
   height="297mm"
   viewBox="0 0 210 297"
   version="1.1"
   id="svg1"
   inkscape:version="1.3 (0e150ed, 2023-07-21)"
   sodipodi:docname="dripping-tv-splash-clip.svg"
   xmlns:inkscape="http://www.inkscape.org/namespaces/inkscape"
   xmlns:sodipodi="http://sodipodi.sourceforge.net/DTD/sodipodi-0.dtd"
   xmlns="http://www.w3.org/2000/svg"
   xmlns:svg="http://www.w3.org/2000/svg">
  <sodipodi:namedview
     id="namedview1"
     pagecolor="#505050"
     bordercolor="#eeeeee"
     borderopacity="1"
     inkscape:showpageshadow="0"
     inkscape:pageopacity="0"
     inkscape:pagecheckerboard="0"
     inkscape:deskcolor="#d1d1d1"
     inkscape:document-units="mm"
     inkscape:zoom="218.50103"
     inkscape:cx="1.8947279"
     inkscape:cy="1.5377502"
     inkscape:window-width="1904"
     inkscape:window-height="1363"
     inkscape:window-x="1452"
     inkscape:window-y="402"
     inkscape:window-maximized="0"
     inkscape:current-layer="layer1" />
  <defs
     id="defs1" />
  <g
     inkscape:label="Layer 1"
     inkscape:groupmode="layer"
     id="layer1">
    <path
       id="rect1"
       style="fill:#1400fc;stroke-width:37.3953;stroke-linecap:round;stroke-linejoin:round"
       inkscape:label="rect1"
       d="M -90.978783,327.486 H 709.02122 V 777.32661 L 687.04694,827.486 663.67934,788.47314 643.09838,812.15952 620,781.99992 H 526.0007 L 511.68966,818.42944 438.85933,781.99992 -90.978783,782 Z"
       sodipodi:nodetypes="cccccccccccc" />
    <path
       id="path1"
       style="fill:#1400fc;stroke-width:37.3953;stroke-linecap:round;stroke-linejoin:round"
       inkscape:label="rect1"
       d="m 857.77925,327.486 h 800.00005 v 449.84061 c 0,0 -8.3529,49.11159 -21.9743,50.15939 -12.0497,0.5239 -10.794,-39.01286 -23.3676,-39.01286 -10.478,-0.5239 -14.2942,24.21028 -20.581,23.68638 -10.478,0.5239 -23.0984,-30.1596 -23.0984,-30.1596 h -93.9993 c 0,0 -17.1638,39.18742 -28.1453,39.71132 -12.6815,0.1525 -12.1701,-16.66711 -24.7333,-26.30488 -12.5632,-9.63778 -34.2627,-13.40644 -34.2627,-13.40644 L 857.77925,782 Z"
       sodipodi:nodetypes="cccccccccsccc" />
    <path
       id="path17"
       style="fill:#1400fc;stroke-width:37.3953;stroke-linecap:round;stroke-linejoin:round"
       inkscape:label="rect1"
       d="m 874.23128,1105.6673 h 800.00002 v 449.8406 c 0,20.8044 -8.3529,49.1116 -21.9743,50.1594 -12.0497,0.5239 -10.794,-39.0129 -23.3676,-39.0129 -10.478,-0.5239 -14.2942,24.2103 -20.581,23.6864 -10.478,0.5239 -23.0984,-30.1596 -23.0984,-30.1596 h -93.9993 c 0,0 -17.1638,39.1874 -28.1453,39.7113 -12.6815,0.1525 -12.1701,-16.6671 -24.7333,-26.3049 -12.5632,-9.6378 -34.2627,-13.4064 -34.2627,-13.4064 l -529.83812,10e-5 z"
       sodipodi:nodetypes="cccccccccsccc" />
    <rect
       style="fill:#00fc89;fill-opacity:1;stroke:none;stroke-width:6.20363;stroke-linecap:round;stroke-linejoin:round"
       id="rect17"
       width="800"
       height="500"
       x="1869.9707"
       y="334.5441"
       ry="146.42311"
       rx="207.29564" />
    <path
       id="rect20"
       style="fill:#affc00;fill-opacity:1;stroke-width:6.20363;stroke-linecap:round;stroke-linejoin:round"
       d="m 2073.7291,1066.7574 h 385.4087 c 114.8418,0 207.2957,65.3048 207.2957,146.4232 v 207.1537 c 0,20.2796 -5.7783,39.5708 -16.2403,57.1004 -5.231,8.7648 1.6832,63.1343 -9.0837,63.2302 -8.7208,0.078 2.456,-37.1654 -17.0443,-21.1431 -14.9299,12.2671 0.5309,60.2018 -20.653,59.8537 -10.784,-0.1773 -2.0406,-30.0566 -10.7903,-29.501 -34.3519,2.1812 -12.6878,64.4922 -35.3644,65.0243 -10.8638,0.2549 -4.8723,-63.3076 -17.2809,-59.6127 -24.8171,7.3898 -52.1283,11.4713 -80.8388,11.4713 h -385.4087 c -114.8418,0 -207.2956,-65.3047 -207.2956,-146.4231 v -207.1537 c 0,-81.1184 92.4538,-146.4232 207.2956,-146.4232 z"
       sodipodi:nodetypes="ssssssssssssssss" />
    <path
       id="path20"
       style="fill:#affc00;fill-opacity:1;stroke-width:6.20363;stroke-linecap:round;stroke-linejoin:round"
       d="m 2073.7291,1066.7574 h 385.4087 c 114.8418,0 207.2957,65.3048 207.2957,146.4232 v 207.1537 c 0,20.2796 -5.7783,39.5708 -16.2403,57.1004 -5.231,8.7648 1.6832,63.1343 -9.0837,63.2302 -8.7208,0.078 2.456,-37.1654 -17.0443,-21.1431 -14.9299,12.2671 0.5309,60.2018 -20.653,59.8537 -10.784,-0.1773 -2.0406,-30.0566 -10.7903,-29.501 -34.3519,2.1812 -12.6878,64.4922 -35.3644,65.0243 -10.8638,0.2549 -4.8723,-63.3076 -17.2809,-59.6127 -24.8171,7.3898 -52.1283,11.4713 -80.8388,11.4713 h -385.4087 c -114.8418,0 -207.2956,-65.3047 -207.2956,-146.4231 v -207.1537 c 0,-81.1184 92.4538,-146.4232 207.2956,-146.4232 z"
       sodipodi:nodetypes="ssssssssssssssss" />
    <path
       id="path21"
       style="fill:#affc00;fill-opacity:1;stroke-width:6.20363;stroke-linecap:round;stroke-linejoin:round"
       d="m 3066.9595,707.50385 h 385.4087 c 114.8418,0 207.2957,65.3048 207.2957,146.4232 v 207.15365 c 0,20.2796 -5.7783,39.5708 -16.2403,57.1004 -5.231,8.7648 1.6832,63.1343 -9.0837,63.2302 -8.7208,0.078 2.456,-37.1654 -17.0443,-21.1431 -14.9299,12.2671 0.5309,60.2018 -20.653,59.8537 -10.784,-0.1773 -2.0406,-30.0566 -10.7903,-29.501 -34.3519,2.1812 -12.6878,64.4922 -35.3644,65.0243 -10.8638,0.2549 -4.8723,-63.3076 -17.2809,-59.6127 -24.8171,7.3898 -52.1283,11.4713 -80.8388,11.4713 h -385.4087 c -114.8418,0 -207.2956,-65.3047 -207.2956,-146.4231 V 853.92705 c 0,-81.1184 92.4538,-146.4232 207.2956,-146.4232 z"
       sodipodi:nodetypes="ssssssssssssssss" />
    <path
       id="path22"
       style="fill:#affc00;fill-opacity:1;stroke-width:6.20363;stroke-linecap:round;stroke-linejoin:round"
       d="m 801.19383,-366.44787 h 385.40867 c 114.8418,0 207.2957,65.3048 207.2957,146.4232 v 207.153678 c 0,20.2796002 -5.7783,39.5708 -16.2403,57.1004 -5.231,8.7648 1.6832,63.134302 -9.0837,63.230202 -8.7208,0.078 2.456,-37.165402 -17.0443,-21.143102 -14.9299,12.2671 0.5309,60.201802 -20.653,59.853702 -10.784,-0.1773 -2.0406,-30.0566 -10.7903,-29.501 -34.3519,2.1812 -12.6878,64.4922 -35.3644,65.0243 -10.8638,0.2549 -4.8723,-63.3076 -17.2809,-59.6127 -24.8171,7.3898 -52.1299,11.1659 -80.8388,11.4713 -61.9931,0.6595 -65.0478,-0.4783 -79.4163,-0.5043 -21.4988,-0.039 -22.9668,42.0529 -32.1998,42.7124 -13.6588,-0.7072 -4.3147,-41.9453 -21.9404,-42.7119 -16.7193,-0.7272 -154.11597,0.5038 -154.11597,0.5038 -36.2726,-0.6595 -19.4949,71.2931 -43.8803,70.3172 -26.7445,-1.0703 5.4992,-68.3387 -53.8559,-70.3172 -114.7781,-3.8259 -207.2956,-65.304702 -207.2956,-146.423102 V -220.02467 c 0,-81.1184 92.4538,-146.4232 207.2956,-146.4232 z"
       sodipodi:nodetypes="ssssssssssssscsccssss" />
    <path
       id="path23"
       style="fill:#affc00;fill-opacity:1;stroke-width:0.00918413;stroke-linecap:round;stroke-linejoin:round"
       d="m 0.259,0 h 0.482 c 0.144,0 0.259,0.114 0.259,0.257 v 0.363 c 0,0.036 -0.007,0.069 -0.02,0.1 -0.007,0.015 0.002,0.111 -0.011,0.111 -0.011,0 0.003,-0.065 -0.021,-0.037 -0.019,0.021 0.001,0.105 -0.026,0.105 -0.013,-0 -0.003,-0.053 -0.013,-0.052 -0.043,0.004 -0.016,0.113 -0.044,0.114 -0.014,0 -0.006,-0.111 -0.022,-0.105 -0.031,0.013 -0.065,0.02 -0.101,0.02 -0.077,0.001 -0.081,-0.001 -0.099,-0.001 -0.027,-0 -0.029,0.074 -0.04,0.075 -0.017,-0.001 -0.005,-0.074 -0.027,-0.075 -0.021,-0.001 -0.193,0.001 -0.193,0.001 C 0.336,0.876 0.357,1.002 0.326,1 0.293,0.999 0.333,0.88 0.259,0.877 0.116,0.87 0,0.762 0,0.62 V 0.257 C 0,0.115 0.116,0 0.259,0 Z"
       sodipodi:nodetypes="ssssssssssssscsccssss" />
  </g>
</svg>
