<?xml version="1.0" encoding="UTF-8"?>
<svg class="svg-inline--fa fa-telegram fa-w-16" aria-hidden="true" data-icon="telegram" data-prefix="fab" focusable="false" role="img" version="1.1" viewBox="0 0 496 512" xmlns="http://www.w3.org/2000/svg" xmlns:xlink="http://www.w3.org/1999/xlink"><defs><linearGradient id="linearGradient823" x1="112.75" x2="380.95" y1="69.611" y2="453.89" gradientUnits="userSpaceOnUse"><stop stop-color="#37ace0" offset="0"/><stop stop-color="#1e94d3" offset="1"/></linearGradient></defs><path d="M248 8C111 8 0 119 0 256s111 248 248 248 248-111 248-248S385 8 248 8zm121.8 169.9l-40.7 191.8c-3 13.6-11.1 16.9-22.4 10.5l-62-45.7-29.9 28.8c-3.3 3.3-6.1 6.1-12.5 6.1l4.4-63.1 114.9-103.8c5-4.4-1.1-6.9-7.7-2.5l-142 89.4-61.2-19.1c-13.3-4.2-13.6-13.3 2.8-19.7l239.1-92.2c11.1-4 20.8 2.7 17.2 19.5z" fill="url(#linearGradient823)"/></svg>
